<svg width="800" height="400" viewBox="0 0 800 400" xmlns="http://www.w3.org/2000/svg">
  <defs>
    <linearGradient id="skyGradient" x1="0%" y1="0%" x2="0%" y2="100%">
      <stop offset="0%" style="stop-color:#87CEEB;stop-opacity:1" />
      <stop offset="100%" style="stop-color:#E0F6FF;stop-opacity:1" />
    </linearGradient>
    <linearGradient id="castleGradient" x1="0%" y1="0%" x2="0%" y2="100%">
      <stop offset="0%" style="stop-color:#8B7355;stop-opacity:1" />
      <stop offset="100%" style="stop-color:#A0956B;stop-opacity:1" />
    </linearGradient>
    <linearGradient id="roofGradient" x1="0%" y1="0%" x2="0%" y2="100%">
      <stop offset="0%" style="stop-color:#654321;stop-opacity:1" />
      <stop offset="100%" style="stop-color:#8B4513;stop-opacity:1" />
    </linearGradient>
  </defs>
  
  <!-- Sky background -->
  <rect width="800" height="400" fill="url(#skyGradient)"/>
  
  <!-- Hills in background -->
  <ellipse cx="200" cy="350" rx="150" ry="50" fill="#90EE90" opacity="0.6"/>
  <ellipse cx="600" cy="370" rx="200" ry="60" fill="#98FB98" opacity="0.5"/>
  
  <!-- Main castle structure -->
  <!-- Central keep -->
  <rect x="350" y="180" width="100" height="150" fill="url(#castleGradient)"/>
  
  <!-- Side towers -->
  <rect x="280" y="200" width="70" height="130" fill="url(#castleGradient)"/>
  <rect x="450" y="200" width="70" height="130" fill="url(#castleGradient)"/>
  
  <!-- Outer walls -->
  <rect x="250" y="250" width="30" height="80" fill="url(#castleGradient)"/>
  <rect x="520" y="250" width="30" height="80" fill="url(#castleGradient)"/>
  
  <!-- Tower roofs -->
  <polygon points="315,200 280,160 350,160" fill="url(#roofGradient)"/>
  <polygon points="485,200 450,160 520,160" fill="url(#roofGradient)"/>
  <polygon points="400,180 350,140 450,140" fill="url(#roofGradient)"/>
  
  <!-- Castle details -->
  <!-- Windows -->
  <rect x="365" y="210" width="15" height="20" fill="#2F4F4F"/>
  <rect x="405" y="210" width="15" height="20" fill="#2F4F4F"/>
  <rect x="365" y="250" width="15" height="20" fill="#2F4F4F"/>
  <rect x="405" y="250" width="15" height="20" fill="#2F4F4F"/>
  
  <!-- Tower windows -->
  <rect x="295" y="220" width="12" height="15" fill="#2F4F4F"/>
  <rect x="465" y="220" width="12" height="15" fill="#2F4F4F"/>
  
  <!-- Gate -->
  <rect x="375" y="280" width="25" height="35" fill="#8B4513"/>
  <path d="M 375 280 Q 387.5 270 400 280" fill="#8B4513"/>
  
  <!-- Flags -->
  <line x1="330" y1="160" x2="330" y2="130" stroke="#654321" stroke-width="2"/>
  <polygon points="330,130 330,140 345,135" fill="#FF6B35"/>
  
  <line x1="470" y1="160" x2="470" y2="130" stroke="#654321" stroke-width="2"/>
  <polygon points="470,130 470,140 485,135" fill="#3B82F6"/>
  
  <!-- Ground -->
  <ellipse cx="400" cy="350" rx="300" ry="30" fill="#228B22" opacity="0.7"/>
  
  <!-- Decorative clouds -->
  <ellipse cx="150" cy="80" rx="40" ry="25" fill="white" opacity="0.8"/>
  <ellipse cx="170" cy="75" rx="30" ry="20" fill="white" opacity="0.8"/>
  <ellipse cx="650" cy="60" rx="35" ry="20" fill="white" opacity="0.8"/>
  <ellipse cx="670" cy="65" rx="25" ry="15" fill="white" opacity="0.8"/>
</svg>
